<?xml version="1.0" standalone="no"?><!DOCTYPE svg PUBLIC "-//W3C//DTD SVG 1.1//EN" "http://www.w3.org/Graphics/SVG/1.1/DTD/svg11.dtd"><svg t="1717166663147" class="icon" viewBox="0 0 1024 1024" version="1.1" xmlns="http://www.w3.org/2000/svg" p-id="8677" xmlns:xlink="http://www.w3.org/1999/xlink" width="64" height="64"><path d="M679.424 746.865778l83.996444-396.003556a37.688889 37.688889 0 0 0-6.001777-36.010666 25.998222 25.998222 0 0 0-29.44-4.010667l-493.681778 190.293333a50.033778 50.033778 0 0 0-22.584889 14.222222 12.344889 12.344889 0 0 0-1.422222 15.132445 31.288889 31.288889 0 0 0 18.289778 11.150222l126.293333 39.424 293.148444-184.576q12.003556-7.992889 18.289778-3.441778 4.010667 2.844444-2.275555 8.533334l-237.141334 214.272-9.130666 130.275555a36.664889 36.664889 0 0 0 25.6-12.572444l61.724444-59.420445 128 94.293334q36.579556 20.565333 46.279111-21.703111zM1024 512a500.622222 500.622222 0 0 1-40.561778 198.855111 503.068444 503.068444 0 0 1-272.583111 272.583111 507.619556 507.619556 0 0 1-397.710222 0 503.068444 503.068444 0 0 1-272.583111-272.583111 507.619556 507.619556 0 0 1 0-397.710222 503.068444 503.068444 0 0 1 272.583111-272.583111 507.619556 507.619556 0 0 1 397.710222 0 503.068444 503.068444 0 0 1 272.583111 272.583111A500.622222 500.622222 0 0 1 1024 512z" fill="#21A3E1" p-id="8678"></path></svg>